<svg width="48" height="48" viewBox="0 0 48 48" fill="none" xmlns="http://www.w3.org/2000/svg">
<g clip-path="url(#clip0_2_5)">
<path d="M48 24C48 10.7452 37.2548 0 24 0C10.7452 0 0 10.7452 0 24C0 37.2548 10.7452 48 24 48C37.2548 48 48 37.2548 48 24Z" fill="#413C6D"/>
<path d="M29.5202 11.9467L17.4802 15.9467C9.38682 18.6534 9.38682 23.0667 17.4802 25.7601L21.0535 26.9467L22.2402 30.5201C24.9335 38.6134 29.3602 38.6134 32.0535 30.5201L36.0668 18.4934C37.8535 13.0934 34.9202 10.1467 29.5202 11.9467ZM29.9468 19.1201L24.8802 24.2134C24.6802 24.4134 24.4268 24.5067 24.1735 24.5067C23.9202 24.5067 23.6668 24.4134 23.4668 24.2134C23.0802 23.8267 23.0802 23.1867 23.4668 22.8001L28.5335 17.7067C28.9202 17.3201 29.5602 17.3201 29.9468 17.7067C30.3335 18.0934 30.3335 18.7334 29.9468 19.1201Z" fill="white"/>
</g>
<defs>
<clipPath id="clip0_2_5">
<rect width="48" height="48" fill="white"/>
</clipPath>
</defs>
</svg>
