<svg width="48" height="48" viewBox="0 0 48 48" fill="none" xmlns="http://www.w3.org/2000/svg">
<g clip-path="url(#clip0_1_2)">
<path d="M48 24C48 10.7452 37.2548 0 24 0C10.7452 0 0 10.7452 0 24C0 37.2548 10.7452 48 24 48C37.2548 48 48 37.2548 48 24Z" fill="#413C6D"/>
<path d="M23.9603 10.6667C16.6003 10.6667 10.627 16.6401 10.627 24.0001C10.627 31.3601 16.6003 37.3334 23.9603 37.3334C31.3203 37.3334 37.2936 31.3601 37.2936 24.0001C37.2936 16.6401 31.3336 10.6667 23.9603 10.6667ZM24.0003 29.6401C20.8803 29.6401 18.3603 27.1201 18.3603 24.0001C18.3603 20.8801 20.8803 18.3601 24.0003 18.3601C27.1203 18.3601 29.6403 20.8801 29.6403 24.0001C29.6403 27.1201 27.1203 29.6401 24.0003 29.6401Z" fill="white"/>
</g>
<defs>
<clipPath id="clip0_1_2">
<rect width="48" height="48" fill="white"/>
</clipPath>
</defs>
</svg>
